<?xml version="1.0" encoding="utf-8"?>
<svg version="1.1" id="Layer_1" xmlns="http://www.w3.org/2000/svg" xmlns:xlink="http://www.w3.org/1999/xlink" x="0px" y="0px"
	 viewBox="0 -10 100 110" style="enable-background:new 0 0 100 100;" xml:space="preserve">
<path fill="#f3bf00" d="M78.3,39.1l10.5-10.5c7.3,13.2,7.3,29.6,0,42.8L78.3,60.9C81,53.9,81,46.1,78.3,39.1 M11.2,28.6l10.5,10.5
	C19,46,19,53.9,21.7,60.8L11.2,71.4C3.9,58.2,3.9,41.8,11.2,28.6L11.2,28.6z M60.9,21.7C54,19,46.1,19,39.2,21.7L28.6,11.2
	c13.2-7.3,29.5-7.3,42.8,0L60.9,21.7z M60.9,78.3l10.5,10.5c-13.2,7.3-29.5,7.3-42.7,0l10.5-10.5C46.1,81,53.9,81,60.9,78.3
	L60.9,78.3z M50,25.4c13.6,0,24.6,11,24.6,24.6S63.6,74.6,50,74.6S25.4,63.6,25.4,50S36.4,25.4,50,25.4z M100,50
	c0-27.6-22.4-50-50-50S0,22.4,0,50s22.4,50,50,50S100,77.6,100,50z"/>
</svg>
