<?xml version="1.0" encoding="utf-8"?>
<svg version="1.1" id="Layer_1" xmlns="http://www.w3.org/2000/svg" xmlns:xlink="http://www.w3.org/1999/xlink" x="0px" y="0px"
	 viewBox="0 0 100 100" style="enable-background:new 0 0 100 100;" xml:space="preserve">
<path d="M8.3,25h83.3c4.6,0,8.3-3.7,8.3-8.3c0-4.6-3.7-8.3-8.3-8.3H8.3C3.7,8.3,0,12.1,0,16.7C0,21.3,3.7,25,8.3,25z"/>
<path d="M91.7,41.7H8.3C3.7,41.7,0,45.4,0,50s3.7,8.3,8.3,8.3h83.3c4.6,0,8.3-3.7,8.3-8.3S96.3,41.7,91.7,41.7z"/>
<path d="M91.7,75H8.3C3.7,75,0,78.7,0,83.3c0,4.6,3.7,8.3,8.3,8.3h83.3c4.6,0,8.3-3.7,8.3-8.3C100,78.7,96.3,75,91.7,75z"/>
</svg>
