<?xml version="1.0" encoding="utf-8"?>
<svg version="1.1" id="Layer_1" xmlns="http://www.w3.org/2000/svg" xmlns:xlink="http://www.w3.org/1999/xlink" x="0px" y="0px"
	 viewBox="0 0 118.3 94.5" style="enable-background:new 0 0 118.3 94.5;" xml:space="preserve">
<style type="text/css">
	.st3{fill:#275fac;}
	.st0{fill:#FFFFFF;}
	.st1{fill:#F3BF00;}
</style>
		<path class="st3" d="M60,1c0.2,8.2,5.2,8.2,7.3,8.2c0.4,0,0.8,0,1.1,0c0.2,0,0.3,0,0.4,0v2c-0.2,0-0.4,0-0.5,0c-0.4,0-0.8,0-1.2,0
		c-1.5,0-3.1,0.2-4.4,1.4c-1.4,1.3-2.1,3.6-2.1,7v0.5h0.5H62c0.8,0,1.6,0.3,2.1,2.6l0.1,0.4l0.5-0.1l26.1-3.3
		c7.4,0,14.1,2.5,18.8,6.9c5,4.7,7.6,11.5,7.6,19.6c0,14-8.8,22.2-14.6,27.6c-2.3,2.2-4,3.7-4.5,5.1c-1,2.8-1.2,9.2-1.2,12.3
		c0,1.4-1.1,2.1-2.1,2.1l-72,0c0,0-0.1,0-0.1,0c-0.8,0-1.3-0.8-1.3-2c0-2.8-0.1-9.5-1.2-12.3c-0.5-1.3-2.1-2.9-4.4-5
		C10.2,69,1,60.5,1,46.4c0-15.8,10.6-26.5,26.5-26.5L53,23.2l0.5,0.1l0.1-0.5c0.2-1.6,1.1-2.6,2.3-2.6h0.7h0.5l0-0.5
		c-0.2-7.7-3.5-8.7-7-8.7c-0.3,0-0.6,0-0.9,0c-0.1,0-0.2,0-0.3,0V9.2c0.2,0,0.3,0,0.5,0c0.4,0,0.8,0,1.2,0c3.3,0,7.2-1,7.3-8.2H60
		 M67.7,39.4c0,7.9-1.1,14.2-2.4,21.5c-0.8,4.3-1.6,8.7-2.3,14c-0.2,0.6,0,1.1,0.3,1.6c0.5,0.6,1.3,1,2.2,1h25.2
		c1.4,0,3-0.1,3.9-1.7c5.4-9.7,8.3-15.1,8.3-23.7c0-10.6-3.7-17.6-11.3-21.4c-7-3.5-16.6-4.1-26-4.5l-0.6,0l0.1,0.6L67.7,39.4
		 M27.8,77.5h24.7c0.8,0,1.6-0.4,2.1-1c0.4-0.5,0.6-1.2,0.5-1.7c-0.7-5-1.5-9.3-2.2-13.2c-1.4-7.7-2.5-14.3-2.5-22.4L53,26.9
		l0.1-0.6l-0.6,0C32.3,26.8,15.6,29.1,15.6,52c0,8.6,2.6,14.1,8.3,23.8C24.7,77.2,26.1,77.5,27.8,77.5 M60.5,0.5h-3
		c0,7.5-3.7,8.2-6.8,8.2c-0.8,0-1.6,0-2.3,0v2.8c0.5,0,1.1,0,1.7,0c3,0,6.3,0.6,6.5,8.2h-0.7c-1.4,0-2.6,1.1-2.8,3l-25.6-3.3
		c-15.1,0-27,9.8-27,27c0,19.8,17.5,28.5,19.1,32.9c1,2.5,1.2,8.6,1.2,12.1c0,1.6,0.8,2.5,1.8,2.5c0.1,0,0.1,0,0.2,0h72
		c1.4,0,2.6-1,2.6-2.6c0-3.5,0.3-9.5,1.2-12.1c1.6-4.5,19.1-13.1,19.1-32.9c0-17.2-11.8-27-27-27l-26.1,3.3c-0.5-2.3-1.4-3-2.6-3
		h-0.8c0-7.2,3.1-8,6-8c0.8,0,1.5,0.1,2.2,0.1v-3c-0.6,0-1.3,0-2.1,0C64.2,8.7,60.5,8,60.5,0.5L60.5,0.5z M65.5,77c-1.4,0-2.3-1-2-2
		c1.9-14.7,4.7-23.1,4.7-35.7l-2.6-12.6c19.6,0.7,36.8,2.6,36.8,25.4c0,8.6-2.8,13.9-8.2,23.5c-0.7,1.2-1.9,1.4-3.5,1.4H65.5
		L65.5,77z M52.5,26.8l-2.6,12.4c0,12.2,2.6,20.8,4.7,35.7c0.2,0.9-0.7,2.1-2.1,2.1H27.8c-1.7,0-2.8-0.3-3.5-1.5
		c-5.4-9.3-8.2-14.9-8.2-23.5C16.1,29.2,33.1,27.3,52.5,26.8L52.5,26.8z"/>
<g transform="scale(.48) translate(98, 76)">
	<path class="st0" d="M44.4,50l0.1,2.3c-4.5,0-6.7,1.7-12.9,8.1c-2.9,2.9-4.7,4.9-7.6,7.7c7.9,8,16.5,18.7,21.3,20.2
	c1.3,0.4,2.5,0.4,3.8,0.5L49,91.1c-1.2,0-2-0.1-3.9-0.1c-4.7,0-6.4,0.3-8.4,0.3c-1.3,0-2.3-1.7-4.2-3.7c-4-3.7-8.8-9.2-13.6-14.3
	c-1,0.9-1.8,1.6-2.3,2.3c0,1.6-0.1,3.1-0.1,4.7c0,6.2,0.2,8.8,5.9,8.8l-0.1,2.5c-2.7-0.3-6.7-0.5-9.3-0.5c-3,0-6.4,0.2-8.8,0.5
	l-0.3-2.3c5.1-0.4,5.7-1.1,5.7-10.9c0-3.3,0.1-7.6-0.1-13.1C9.1,57.4,10.7,53,3.7,52.4l0.2-2.1c2.3,0.3,6.8,0.5,8.8,0.5
	c2.7,0,7.1-0.2,9.5-0.5l0.1,2.3c-6.2,0.5-5.9-0.7-5.9,18.2c8.8-8.5,15-15.6,15-17c0-1-0.7-1.2-2.6-1.5l0.2-2.1
	c1.7,0.3,5.1,0.5,7.6,0.5C39.5,50.4,42.7,50.2,44.4,50L44.4,50z"/>
<path class="st1" d="M11.6,32.6h10.5c0.6,0,1-0.5,0.9-0.9c-0.9-6.4-2-10-2-15.2l1.1-5.3c-8.3,0.2-15.5,1-15.5,10.7
	c0,3.7,1.2,6.1,3.5,10C10.4,32.5,10.9,32.6,11.6,32.6z M38.5,32.6c0.7,0,1.2-0.1,1.5-0.6c2.3-4.1,3.5-6.4,3.5-10
	c0-9.7-7.4-10.5-15.7-10.8l1.1,5.4c0,5.4-1.2,8.9-2,15.2c-0.1,0.5,0.3,0.9,0.9,0.9C27.7,32.6,38.5,32.6,38.5,32.6z M8.6,38.8
	c0-1.5-0.1-4.1-0.5-5.2C7.5,31.7,0,28,0,19.6C0,12.2,5.1,8.1,11.5,8.1l10.9,1.4c0.1-0.8,0.6-1.3,1.2-1.3H24
	c-0.1-3.9-2.1-3.5-3.5-3.5V3.5c1.4,0,3.9,0.5,3.9-3.5h1.3c0,4,2.4,3.5,3.8,3.5v1.3c-1.4,0-3.5-0.5-3.5,3.4h0.3
	c0.5,0,0.9,0.3,1.1,1.3l11.1-1.4c6.5,0,11.5,4.2,11.5,11.5c0,8.4-7.5,12.1-8.2,14c-0.4,1.1-0.5,3.7-0.5,5.2c0,0.7-0.5,1.1-1.1,1.1
	H9.5C9,39.9,8.6,39.5,8.6,38.8L8.6,38.8z"/>
</g>


</svg>
