<?xml version="1.0" encoding="utf-8"?>
<svg version="1.1" id="Layer_1" xmlns="http://www.w3.org/2000/svg" xmlns:xlink="http://www.w3.org/1999/xlink" x="0px" y="0px"
	 viewBox="0 0 371.9 94.5" style="enable-background:new 0 0 371.9 94.5;" xml:space="preserve">
<style type="text/css">
	.st0{fill:#FFFFFF;}
	.st1{fill:#F3BF00;}
</style>
<path class="st0" d="M266.9,49.3c12,0,21.8,9.4,21.8,21.2c0,12.2-9,22.2-23.3,22.2c-11.7,0-21.7-9.1-21.7-21.2
	C243.7,59.5,252.4,49.3,266.9,49.3z M265.2,53c-9.3,0-13.2,9-13.2,16.6c0,11.1,6.9,19.4,15.4,19.4c8,0,13.2-7.2,13.2-16.7
	C280.5,62.1,274.2,53,265.2,53L265.2,53z M0.3,50.3c2,0.3,5.8,0.5,8.5,0.5c5.6,0,8.7-0.6,13.4-0.6c7.4,0,10.8,4.5,10.8,9.6
	c0,7.8-6.2,15.6-17.1,15.6h-1.4c-0.6,0-1.1,0-1.6-0.1v4.2c0,4,0.1,7.9,1.7,9c1.3,0.9,3.5,0.8,6,1L20.3,92c-2.6-0.3-8.7-0.6-11.3-0.6
	c-2.7,0-6.2,0.1-8.7,0.4L0,89.4c5.2-0.9,4.9-0.2,5.6-9.6c0-6.1,0.1-10.3,0.1-16.9c0-4.5-0.1-8.4-1.6-9.4c-1-0.6-2.3-0.7-4-0.9
	L0.3,50.3z M13.1,53.5c0,3.5-0.3,11.5-0.3,16.7c1,0.3,3.2,0.7,5,0.7c5.3,0,8.6-2.6,8.6-7.7c0-6.9-4.5-9.8-11.5-9.8
	C14.6,53.4,13.4,53.4,13.1,53.5L13.1,53.5z M66.1,49.3c12,0,21.8,9.4,21.8,21.2c0,12.2-9,22.2-23.3,22.2c-11.7,0-21.7-9.1-21.7-21.2
	C42.8,59.5,51.6,49.3,66.1,49.3L66.1,49.3z M64.4,53c-9.3,0-13.2,9-13.2,16.6c0,11.1,6.9,19.4,15.4,19.4c8,0,13.2-7.2,13.2-16.7
	C79.7,62.1,73.4,53,64.4,53L64.4,53z M138.4,50.3l0.1,2.3c-4.5,0-6.7,1.7-13,8.1c-2.9,2.9-4.7,4.9-7.6,7.7
	c7.9,8,16.6,18.8,21.4,20.3c1.3,0.4,2.5,0.4,3.8,0.5l-0.1,2.4c-1.2,0-2-0.1-3.9-0.1c-4.7,0-6.4,0.3-8.5,0.3c-1.3,0-2.3-1.7-4.2-3.7
	c-4-3.7-8.9-9.3-13.7-14.4c-1,0.9-1.8,1.6-2.3,2.3c0,1.6-0.1,3.1-0.1,4.7c0,6.2,0.2,8.9,5.9,8.9l-0.1,2.5c-2.7-0.3-6.7-0.5-9.4-0.5
	c-3,0-6.4,0.2-8.9,0.5l-0.3-2.3c5.1-0.4,5.7-1.1,5.7-11c0-3.3,0.1-7.6-0.1-13.2c-0.2-7.9,1.4-12.3-5.7-12.9l0.2-2.1
	c2.3,0.3,6.8,0.5,8.9,0.5c2.7,0,7.1-0.2,9.6-0.5l0.1,2.3c-6.2,0.5-5.9-0.7-5.9,18.3c8.9-8.6,15.1-15.7,15.1-17.1
	c0-1-0.7-1.2-2.6-1.5l0.2-2.1c1.7,0.3,5.1,0.5,7.6,0.5C133.4,50.7,136.7,50.5,138.4,50.3L138.4,50.3z M151,50.3
	c2.3,0.3,5.9,0.5,9,0.5c8.6,0,22.5-0.4,23.4-0.4c0.4,0,0.5,0.1,0.5,0.4c0,0.6-0.9,6.1-1.1,10.3l-2.4-0.1v-2c0-5.2-1.6-4.9-6.3-4.9
	c-2.5,0-6.3,0.1-10.3,0.1c0,3.5-0.3,9.9-0.3,15.2c2.1,0,4.2,0.1,6.1,0.1c3.8,0,6.9-0.2,7.8-1.1c0.6-0.9,0.8-2.6,0.8-3.5h2.3
	c-0.2,2.3-0.2,7.3-0.2,10.6c0,1.2,0.2,2.2,0.2,2.9l-2.4,0.1c0-2.5,0.1-4.9-3.6-5.3c-2.4,0-5.7-0.1-9.3-0.1c-0.6,0-1.1,0.1-1.7,0.1
	V75c0,1.8-0.1,2.4-0.1,4.3c0,7.8-0.4,8.4,9.2,8.4c6.3,0,9.4,0.2,11.2-6.9l1.9,0.4c-0.2,2.9-1.3,8.8-2.1,9.9
	c-0.4,0.5-0.9,0.7-1.8,0.7c-2.7,0-10.4-0.5-20-0.5c-3.3,0-8.4,0.1-11,0.5l-0.3-2.3c5.3-0.5,5.7-0.9,5.7-14.4V63.6
	c0-6.7-0.1-10.1-3.4-10.8c-0.7-0.1-1.5-0.1-2.3-0.2L151,50.3z M196.9,50.3c2.1,0.3,6.4,0.5,8.6,0.5c3.7,0,10.2-0.6,12.7-0.6
	c7.4,0,10.9,3.3,10.9,9.8c0,5.9-2.7,8.2-6,10.8c-1,0.8-2,1.1-2,2.1c0,1.6,7.4,11.5,12.5,15.2c1.3,1,4,1.2,5,1.3l0.1,2
	c-1.4,0.4-4.7,0.6-6.7,0.6c-4.7,0-8.9-1.3-17.9-17.1c-0.6-1.1-0.7-0.6-3.2-0.8c-0.6-0.1-1.1-0.1-1.8-0.2c0,4.5,0.2,9,0.4,12
	c0.2,2.8,2.1,3,6.9,3.3l-0.3,2.4c-2.6,0-7.2-0.5-10.8-0.5c-2.8,0-6.1,0.1-8.5,0.4l-0.3-2.3c5.2-0.8,5.7-0.9,5.7-10.1
	c0-4.8,0.1-18.3-0.4-23.5c-0.3-2.5-1.6-2.8-5.2-3.3L196.9,50.3z M209.3,53.4c0,3.1-0.3,10.5-0.3,16.1c1.6,0.6,3.3,0.9,5,0.9
	c4,0,8.3-1.9,8.3-7.4c0-7.5-5.9-9.7-11.5-9.7C210.2,53.4,209.7,53.4,209.3,53.4L209.3,53.4z M298.8,50.3c3,0.3,5.7,0.5,8.7,0.5
	c8.7,0,22-0.4,22.1-0.4c0.4,0,0.6,0.1,0.6,0.5v2.3v4.7c0,1.7,0,2.6,0.1,3.6l-2.3,0.1c-0.8-8.7-0.6-7.2-13.2-7.2
	c-0.8,0-1.7,0.1-2.6,0.1h-0.6c0,3.8-0.3,9.6-0.3,15.1c0.8,0.1,1.6,0.2,2.5,0.2c1.4,0,3-0.1,4.1-0.1c4-0.2,6.7,0.1,7-2.8
	c0.1-0.7,0.2-1.3,0.3-1.8l2.2,0.1c-0.1,0.6-0.1,1.6-0.1,2.6v4.7c0,1.1-0.1,2.3-0.1,3.3c0,1.2,0.1,2.2,0.1,2.9l-2.3,0.1
	c0-4.9,0-5.5-12.7-5.5c-0.4,0-0.8,0.1-1.1,0.1c0,4.7,0.1,9.8,0.4,13c0.4,3.1,2.3,2.8,7.2,3.5l-0.1,2.2c-2.3,0-8.1-0.5-11.3-0.5
	c-2.6,0-6.1,0.2-8.5,0.5l-0.3-2.3c5.1-0.4,5.7-1,5.7-12.3c0-3.8-0.1-8.7-0.1-15.2c-0.4-6.4,0.6-9.1-5.6-9.6L298.8,50.3z M340.5,50.3
	c3,0.3,5.7,0.5,8.8,0.5c7.9,0,21.4-0.4,22-0.4c0.4,0,0.6,0.1,0.6,0.5v2.3c0,2.4,0,6.2,0.1,8.3l-2.3,0.1c-0.7-7.9-0.6-6.7-7.7-7.2
	c-2.9,0-5.5,0.1-8.9,0.1c0,3.8-0.2,9.6-0.2,15.1c0.8,0.1,1.6,0.2,2.5,0.2c1.5,0,3-0.1,4.1-0.1c5.1-0.2,6.7,0.4,7.3-4.7l2.3,0.1
	c-0.2,2.3-0.2,8.4-0.2,11.5c0,0.8,0.1,1.5,0.2,2l-2.3,0.1c0-5-0.4-5.5-12.7-5.5c-0.4,0-0.8,0.1-1.1,0.1c0,4.8,0.1,9.8,0.4,13
	c0.2,3.3,3.1,3,7.2,3.5l-0.2,2.2c-2.5,0-8.7-0.5-11.2-0.5c-2.8,0-6.2,0.2-8.6,0.5l-0.3-2.3c5.2-0.4,5.7-1,5.7-12.3v-15
	c0-7.2-0.3-9.6-5.7-10L340.5,50.3z"/>
<path class="st1" d="M105.4,32.8H116c0.6,0,1-0.5,0.9-0.9c-0.9-6.4-2-10.1-2-15.3l1.1-5.3c-8.3,0.2-15.6,1-15.6,10.8
	c0,3.7,1.2,6.1,3.5,10.1C104.2,32.7,104.7,32.8,105.4,32.8z M132.4,32.8c0.7,0,1.2-0.1,1.5-0.6c2.3-4.1,3.5-6.4,3.5-10.1
	c0-9.8-7.4-10.6-15.8-10.9l1.1,5.4c0,5.4-1.2,9-2,15.3c-0.1,0.5,0.3,0.9,0.9,0.9C121.6,32.8,132.4,32.8,132.4,32.8z M102.4,39
	c0-1.5-0.1-4.1-0.5-5.2c-0.7-1.9-8.2-5.6-8.2-14.1c0-7.4,5.1-11.6,11.6-11.6l11,1.4c0.1-0.8,0.6-1.3,1.2-1.3h0.3
	c-0.1-3.9-2.1-3.5-3.5-3.5V3.5c1.4,0,3.9,0.5,3.9-3.5h1.3c0,4,2.4,3.5,3.8,3.5v1.3c-1.4,0-3.5-0.5-3.5,3.4h0.3
	c0.5,0,0.9,0.3,1.1,1.3l11.2-1.4c6.5,0,11.6,4.2,11.6,11.6c0,8.5-7.5,12.2-8.2,14.1c-0.4,1.1-0.5,3.7-0.5,5.2c0,0.7-0.5,1.1-1.1,1.1
	h-30.9C102.8,40.1,102.4,39.7,102.4,39L102.4,39z"/>
</svg>
