<?xml version="1.0" encoding="utf-8"?>
<!-- Generator: Adobe Illustrator 21.0.0, SVG Export Plug-In . SVG Version: 6.00 Build 0)  -->
<svg version="1.1" id="Layer_1" xmlns="http://www.w3.org/2000/svg" xmlns:xlink="http://www.w3.org/1999/xlink" x="0px" y="0px"
	 width="100px" height="100px" viewBox="0 0 100 100" style="enable-background:new 0 0 100 100;" xml:space="preserve">
<style type="text/css">
	.st0{fill:#F3BF00;}
</style>
<g>
	<path class="st0" d="M50,8.1c-17.6,0-26.7,7.5-26.7,20.8v8.2h17.2v-9c0-6,3.3-8.1,9-8.1c5.8,0,9.1,2.2,9.1,8.1
		c0,20.6-19.8,22.2-19.8,40.4c0,2.1,0.3,3.6,1,5.1H56c-0.5-1.5-0.7-3.1-0.7-4.6c0-15.2,21.5-18.4,21.5-40C76.7,15.6,67.6,8.1,50,8.1
		L50,8.1z"/>
	<path class="st0" d="M39,79.3h17.4v12.6H39V79.3z"/>
</g>
</svg>
