<?xml version="1.0" encoding="utf-8"?>
<!-- Generator: Adobe Illustrator 21.0.0, SVG Export Plug-In . SVG Version: 6.00 Build 0)  -->
<svg version="1.1" id="Layer_1" xmlns="http://www.w3.org/2000/svg" xmlns:xlink="http://www.w3.org/1999/xlink" x="0px" y="0px"
	 width="100px" height="100px" viewBox="0 0 100 100" style="enable-background:new 0 0 100 100;" xml:space="preserve">
<style type="text/css">
	.st0{fill:none;stroke:#E1E1E1;stroke-miterlimit:10;}
</style>
<g>
	<path class="st0" d="M95,38.2C95,67,68.4,84.6,64.3,86.8c-3,1.6-5.8,2.7-7.7,2.7c-1.7,0-2.7-0.8-2.7-2.2c0-1.4,1.4-3,2.7-4.1
		c3.8-2.7,14.5-17,14.5-30.5c0-3.6-1.9-6.8-4.1-7.9c-2.5-1.4-14-3.8-14-18.4c0-8.5,6.9-15.9,16.5-15.9C82.1,10.5,95,20.1,95,38.2
		L95,38.2z"/>
	<path class="st0" d="M47,38.2C47,67,20.4,84.6,16.3,86.8c-3,1.6-5.8,2.7-7.7,2.7c-1.7,0-2.7-0.8-2.7-2.2c0-1.4,1.4-3,2.7-4.1
		c3.8-2.7,14.5-17,14.5-30.5c0-3.6-1.9-6.8-4.1-7.9C16.5,43.4,5,41,5,26.4c0-8.5,6.9-15.9,16.5-15.9C34.1,10.5,47,20.1,47,38.2
		L47,38.2z"/>
</g>
</svg>
