<?xml version="1.0" encoding="utf-8"?>
<!-- Generator: Adobe Illustrator 22.1.0, SVG Export Plug-In . SVG Version: 6.00 Build 0)  -->
<svg version="1.1" id="Layer_1" xmlns="http://www.w3.org/2000/svg" xmlns:xlink="http://www.w3.org/1999/xlink" x="0px" y="0px"
	 viewBox="0 0 24 24" style="enable-background:new 0 0 24 24;" xml:space="preserve">
<style type="text/css">
	.st1{fill:#F3BF00;}
</style>    
<path class="st1" d="M12,6c-3.3,0-6,2.7-6,6s2.7,6,6,6h6c3.3,0,6-2.7,6-6c0-6.6-5.4-12-12-12S0,5.4,0,12s5.4,12,12,12h12v-3H12c-5,0-9-4-9-9
	s4-9,9-9s9,4,9,9c0,1.6-1.4,3-3,3h-0.8c0.5-0.9,0.8-1.9,0.8-3C18,8.7,15.3,6,12,6z M12,15c-1.6,0-3-1.4-3-3s1.4-3,3-3s3,1.4,3,3
	S13.6,15,12,15z"/>
</svg>
