<?xml version="1.0" encoding="utf-8"?>
<!-- Generator: Adobe Illustrator 19.2.1, SVG Export Plug-In . SVG Version: 6.00 Build 0)  -->
<svg version="1.1" id="Layer_1" xmlns="http://www.w3.org/2000/svg" xmlns:xlink="http://www.w3.org/1999/xlink" x="0px" y="0px"
	 viewBox="0 0 24 24" style="enable-background:new 0 0 24 24;" xml:space="preserve">
<style type="text/css">
	.st0{fill-rule:evenodd;clip-rule:evenodd;fill:#25D366;}
	.st1{fill-rule:evenodd;clip-rule:evenodd;fill:#FFFFFF;}
</style>
<g id="WA_Logo_2_">
	<g>
		<path class="st0" d="M18.7,5.3c-1.8-1.8-4.1-2.8-6.7-2.8c-5.2,0-9.4,4.2-9.4,9.4c0,1.7,0.4,3.3,1.3,4.7l-1.3,4.9l5-1.3
			c1.4,0.7,2.9,1.1,4.5,1.1h0c5.2,0,9.4-4.2,9.4-9.4C21.5,9.4,20.5,7,18.7,5.3z"/>
	</g>
</g>
<path class="st1" d="M16.7,14.2c-0.1-0.1-0.2-0.2-0.5-0.3c-0.2-0.1-1.4-0.7-1.6-0.8c-0.2-0.1-0.4-0.1-0.5,0.1
	c-0.2,0.2-0.6,0.8-0.7,0.9c-0.1,0.2-0.3,0.2-0.5,0.1c-0.2-0.1-1-0.4-1.9-1.2c-0.7-0.6-1.2-1.4-1.3-1.6c-0.1-0.2,0-0.4,0.1-0.5
	c0.1-0.1,0.2-0.3,0.4-0.4c0.1-0.1,0.2-0.2,0.2-0.4c0.1-0.2,0-0.3,0-0.4C10.3,9.6,9.8,8.4,9.7,8C9.5,7.5,9.3,7.6,9.1,7.6
	c-0.1,0-0.3,0-0.5,0C8.5,7.6,8.3,7.6,8,7.9c-0.2,0.2-0.8,0.8-0.8,2c0,1.2,0.8,2.3,1,2.4c0.1,0.2,1.7,2.5,4,3.6
	c0.6,0.2,1,0.4,1.3,0.5c0.6,0.2,1.1,0.2,1.5,0.1c0.5-0.1,1.4-0.6,1.6-1.1C16.8,14.7,16.8,14.3,16.7,14.2z"/>
</svg>
