<?xml version="1.0" encoding="utf-8"?>
<svg version="1.1" id="Layer_1" xmlns="http://www.w3.org/2000/svg" xmlns:xlink="http://www.w3.org/1999/xlink" x="0px" y="0px"
	 viewBox="0 0 24 24" style="enable-background:new 0 0 24 24;" xml:space="preserve">
<style type="text/css">
	.st0{fill:#E70000;}
	.st1{fill:#FFFFFF;}
</style>
<path class="st0" d="M12,24L12,24C5.4,24,0,18.6,0,12v0C0,5.4,5.4,0,12,0h0c6.6,0,12,5.4,12,12v0C24,18.6,18.6,24,12,24z"/>
<g>
	<path class="st1" d="M19.1,8.4c-0.2-0.6-0.7-1.1-1.3-1.3C16.6,6.8,12,6.8,12,6.8s-4.6,0-5.8,0.3C5.6,7.3,5.1,7.8,4.9,8.4
		C4.6,9.6,4.6,12,4.6,12s0,2.4,0.3,3.6c0.2,0.6,0.7,1.1,1.3,1.3c1.2,0.3,5.8,0.3,5.8,0.3s4.6,0,5.8-0.3c0.6-0.2,1.1-0.7,1.3-1.3
		c0.3-1.2,0.3-3.6,0.3-3.6S19.4,9.6,19.1,8.4z"/>
	<polygon class="st0" points="10.5,14.2 10.5,9.8 14.4,12 	"/>
</g>
</svg>
