<?xml version="1.0" encoding="utf-8"?>
<!-- Generator: Adobe Illustrator 21.0.0, SVG Export Plug-In . SVG Version: 6.00 Build 0)  -->
<svg version="1.1" id="Layer_1" xmlns="http://www.w3.org/2000/svg" xmlns:xlink="http://www.w3.org/1999/xlink" x="0px" y="0px"
	 width="14px" height="14px" viewBox="0 0 14 14" style="enable-background:new 0 0 14 14;" xml:space="preserve">
<style type="text/css">
	.st0{fill:url(#SVGID_1_);}
</style>
<g>
	<linearGradient id="SVGID_1_" gradientUnits="userSpaceOnUse" x1="7" y1="0.3" x2="7" y2="13.7">
		<stop  offset="0" style="stop-color:#CDF051"/>
		<stop  offset="1" style="stop-color:#227118"/>
	</linearGradient>
	<path class="st0" d="M7,2.6l1.3,2.6l0.2,0.5H9l2.8,0.4l-2,2L9.4,8.5L9.5,9l0.5,2.8l-2.5-1.3L7,10.3l-0.5,0.2L4,11.8L4.5,9l0.1-0.5
		L4.2,8.1l-2-2L5,5.7l0.5-0.1l0.2-0.5L7,2.6 M7,0.3L4.8,4.7L0,5.4l3.5,3.4l-0.8,4.8L7,11.4l4.3,2.3l-0.8-4.8L14,5.4L9.2,4.7L7,0.3
		L7,0.3z"/>
</g>
</svg>
