<?xml version="1.0" encoding="utf-8"?>
<!-- Generator: Adobe Illustrator 22.1.0, SVG Export Plug-In . SVG Version: 6.00 Build 0)  -->
<svg version="1.1" id="Layer_1" xmlns="http://www.w3.org/2000/svg" xmlns:xlink="http://www.w3.org/1999/xlink" x="0px" y="0px"
	 viewBox="0 0 14 14" style="enable-background:new 0 0 14 14;" xml:space="preserve">
<g>
	<path d="M7,2.6l1.3,2.6l0.2,0.5L9,5.7l2.8,0.4l-2,2L9.4,8.5L9.5,9l0.5,2.8l-2.5-1.3L7,10.3l-0.5,0.2L4,11.8L4.5,9l0.1-0.5L4.2,8.1
		l-2-2L5,5.7l0.5-0.1l0.2-0.5L7,2.6 M7,0.3L4.8,4.7L0,5.4l3.5,3.4l-0.8,4.8L7,11.4l4.3,2.3l-0.8-4.8L14,5.4L9.2,4.7L7,0.3L7,0.3z"/>
</g>
</svg>
