<?xml version="1.0" encoding="utf-8"?>
<!-- Generator: Adobe Illustrator 22.1.0, SVG Export Plug-In . SVG Version: 6.00 Build 0)  -->
<svg version="1.1" id="Layer_1" xmlns="http://www.w3.org/2000/svg" xmlns:xlink="http://www.w3.org/1999/xlink" x="0px" y="0px"
	 viewBox="0 0 24 24" style="enable-background:new 0 0 24 24;" xml:space="preserve">
<style type="text/css">
	.st0{fill:url(#SVGID_1_);}
	.st1{fill:#C8DAEA;}
	.st2{fill:#A9C6D8;}
	.st3{fill:#FFFFFF;}
</style>
<g>
	<linearGradient id="SVGID_1_" gradientUnits="userSpaceOnUse" x1="12" y1="24" x2="12" y2="-9.094947e-13">
		<stop  offset="0" style="stop-color:#1D93D2"/>
		<stop  offset="1" style="stop-color:#38B0E3"/>
	</linearGradient>
	<circle class="st0" cx="12" cy="12" r="12"/>
	<path class="st1" d="M8.1,12.9l1.4,3.9c0,0,0.2,0.4,0.4,0.4c0.2,0,3-2.9,3-2.9l3.2-6.1l-7.9,3.7L8.1,12.9z"/>
	<path class="st2" d="M10,13.9l-0.3,2.9c0,0-0.1,0.9,0.8,0c0.9-0.9,1.7-1.6,1.7-1.6"/>
	<g>
		<path class="st3" d="M8.1,13l-2.9-1c0,0-0.3-0.1-0.2-0.5c0-0.1,0.1-0.1,0.2-0.2c0.6-0.5,12-4.5,12-4.5s0.3-0.1,0.5,0
			c0.1,0,0.1,0.1,0.2,0.2c0,0,0,0.2,0,0.3c0,0.1,0,0.1,0,0.3c-0.1,1.1-2.1,9.4-2.1,9.4s-0.1,0.5-0.6,0.5c-0.2,0-0.4,0-0.6-0.2
			c-0.9-0.7-3.9-2.8-4.5-3.2c0,0,0-0.1-0.1-0.1c0,0,0-0.1,0-0.1s5.2-4.7,5.4-5.1c0,0,0-0.1-0.1,0C15,8.8,9,12.6,8.3,13
			C8.3,13,8.1,13,8.1,13z"/>
	</g>
</g>
</svg>
