<?xml version="1.0" encoding="utf-8"?>
<!-- Generator: Adobe Illustrator 22.1.0, SVG Export Plug-In . SVG Version: 6.00 Build 0)  -->
<svg version="1.1" id="Layer_1" xmlns="http://www.w3.org/2000/svg" xmlns:xlink="http://www.w3.org/1999/xlink" x="0px" y="0px"
	 viewBox="0 0 24 24" style="enable-background:new 0 0 24 24;" xml:space="preserve">
<style type="text/css">
	.st0{fill:#00AFF0;}
	.st1{fill:#FFFFFF;}
</style>
<g>
	<g>
		<path class="st0" d="M23.1,14.1c0.1-0.6,0.1-1.4,0.1-2.1c0-1.5-0.3-3.1-0.9-4.4C21.8,6.2,20.9,5,19.9,4s-2.3-1.9-3.6-2.4
			c-1.4-0.6-3-0.9-4.4-0.9c-0.8,0-1.4,0.1-2.2,0.3c-0.8-0.7-2-0.9-3-0.9C4.9,0.1,3.2,0.7,1.9,2C0.6,3.3,0,4.9,0,6.7
			C0,7.9,0.3,9,0.9,9.9c-0.1,0.6-0.1,1.3-0.1,1.9c0,1.5,0.3,3.1,0.9,4.4c0.5,1.4,1.4,2.6,2.4,3.6s2.3,1.9,3.6,2.4
			c1.4,0.6,3,0.9,4.4,0.9c0.6,0,1.2,0,1.8-0.1c0,0,0.1,0,0.1,0c1,0.5,2.2,0.9,3.3,0.9c1.8,0,3.5-0.6,4.7-1.9s1.9-3,1.9-4.7
			C24,16.1,23.6,15,23.1,14.1z"/>
	</g>
	<path class="st1" d="M14.1,10.7l-2.7-0.6c-1-0.2-2.2-0.6-2.2-1.5c0-1.1,0.9-1.7,2.3-1.7c3,0,2.7,2.1,3.9,2.2c0.8,0,1.4-0.5,1.4-1.3
		c0-1.8-3-3.2-5.4-3.2c-2.7,0-5.5,1.1-5.5,4.2c0,1.4,0.5,2.9,3.5,3.7l3.6,0.9c1.1,0.2,1.4,0.9,1.4,1.4c0,0.9-0.9,1.8-2.6,1.8
		c-3.2,0-2.8-2.4-4.5-2.4c-0.8,0-1.3,0.5-1.3,1.3c0,1.5,2,3.4,5.9,3.4c3.9,0,5.8-1.9,5.8-4.2C17.7,13,17.1,11.3,14.1,10.7z"/>
</g>
</svg>
