<?xml version="1.0" encoding="utf-8"?>
<svg version="1.1" id="Flags" xmlns="http://www.w3.org/2000/svg" xmlns:xlink="http://www.w3.org/1999/xlink" x="0px" y="0px"
	 viewBox="0 0 71.2 46.7" style="enable-background:new 0 0 71.2 46.7;" xml:space="preserve">
<style type="text/css">
	.st0{fill:#00319F;}
	.st1{fill:#FFCD00;}
</style>
<rect class="st0" width="71.2" height="46.7"/>
<g>
	<polygon class="st1" points="22,12.9 22.6,14.7 24.5,14.7 23,15.8 23.6,17.7 22,16.5 20.4,17.7 21,15.8 19.5,14.7 21.4,14.7 	"/>
	<polygon class="st1" points="27.6,7.2 28.2,9 30.1,9 28.5,10.1 29.1,12 27.6,10.8 26,12 26.6,10.1 25.1,9 27,9 	"/>
	<polygon class="st1" points="35.5,5 36.1,6.9 38.1,6.9 36.5,8 37.1,9.8 35.5,8.7 34,9.8 34.6,8 33,6.9 34.9,6.9 	"/>
	<polygon class="st1" points="43.4,7.2 44,9 45.9,9 44.4,10.2 45,12 43.4,10.9 41.8,12 42.4,10.2 40.9,9 42.8,9 	"/>
	<polygon class="st1" points="49.2,13 49.8,14.8 51.7,14.8 50.2,15.9 50.8,17.8 49.2,16.6 47.6,17.8 48.2,15.9 46.7,14.8 48.6,14.8 
			"/>
	<polygon class="st1" points="51.3,20.9 51.9,22.8 53.9,22.8 52.3,23.9 52.9,25.7 51.3,24.6 49.8,25.7 50.4,23.9 48.8,22.8 
		50.7,22.8 	"/>
	<polygon class="st1" points="49.2,28.9 49.8,30.8 51.7,30.8 50.2,31.9 50.8,33.7 49.2,32.6 47.6,33.7 48.2,31.9 46.7,30.8 
		48.6,30.8 	"/>
	<polygon class="st1" points="43.4,34.7 44,36.5 45.9,36.5 44.4,37.6 45,39.5 43.4,38.3 41.8,39.5 42.4,37.6 40.9,36.5 42.8,36.5 	
		"/>
	<polygon class="st1" points="35.6,36.8 36.2,38.6 38.1,38.6 36.5,39.7 37.1,41.6 35.6,40.5 34,41.6 34.6,39.7 33,38.6 35,38.6 	"/>
	<polygon class="st1" points="27.6,34.6 28.2,36.5 30.1,36.5 28.6,37.6 29.2,39.4 27.6,38.3 26,39.4 26.6,37.6 25.1,36.5 27,36.5 	
		"/>
	<polygon class="st1" points="21.9,28.9 22.5,30.7 24.5,30.7 22.9,31.8 23.5,33.7 21.9,32.6 20.4,33.7 21,31.8 19.4,30.7 21.3,30.7 
			"/>
	<polygon class="st1" points="19.7,20.8 20.4,22.6 22.3,22.6 20.7,23.8 21.3,25.6 19.7,24.5 18.2,25.6 18.8,23.8 17.2,22.6 
		19.1,22.6 	"/>
</g>
</svg>
