<?xml version="1.0" encoding="utf-8"?>
<svg version="1.1" id="Flags" xmlns="http://www.w3.org/2000/svg" xmlns:xlink="http://www.w3.org/1999/xlink" x="0px" y="0px"
	 viewBox="0 0 71.2 46.7" style="enable-background:new 0 0 71.2 46.7;" xml:space="preserve">
<style type="text/css">
	.st0{fill-rule:evenodd;clip-rule:evenodd;fill:#FFFFFF;}
	.st1{fill-rule:evenodd;clip-rule:evenodd;fill:#003A80;}
	.st2{fill-rule:evenodd;clip-rule:evenodd;fill:#E03A3E;}
</style>
<g>
	<rect class="st0" width="71.2" height="46.7"/>
	<path class="st1" d="M0,0h32.4v25.2H0V0L0,0z M4.1,1.9H3L2.7,1l-0.3,1H1.2l0.9,0.6L1.8,3.7L2.7,3l0.9,0.6l-0.3-1L4.1,1.9L4.1,1.9z
		 M30.8,22.7h-1l-0.4-1l-0.3,1h-1l0.9,0.6l-0.4,1.1l0.9-0.7l0.9,0.7l-0.3-1.1L30.8,22.7L30.8,22.7z M25.5,22.7h-1.1l-0.3-1l-0.3,1
		h-1.1l0.9,0.6l-0.3,1.1l0.9-0.7l0.9,0.7l-0.3-1.1L25.5,22.7L25.5,22.7z M20.1,22.7h-1l-0.3-1l-0.3,1h-1.1l0.9,0.6l-0.4,1.1l1-0.7
		l0.9,0.7l-0.3-1.1L20.1,22.7L20.1,22.7z M14.8,22.7h-1l-0.3-1l-0.4,1h-1l0.9,0.6l-0.4,1.1l1-0.7l0.9,0.7l-0.4-1.1L14.8,22.7
		L14.8,22.7z M9.4,22.7h-1l-0.4-1l-0.3,1h-1l0.9,0.6l-0.4,1.1L8,23.7l0.9,0.7l-0.3-1.1L9.4,22.7L9.4,22.7z M4.1,22.7H3l-0.3-1
		l-0.3,1H1.2l0.9,0.6l-0.3,1.1l0.9-0.7l0.9,0.7l-0.3-1.1L4.1,22.7L4.1,22.7z M28,20.1h-1l-0.3-1l-0.3,1h-1.1l0.9,0.6l-0.4,1.1l1-0.7
		l0.9,0.6l-0.4-1L28,20.1L28,20.1z M22.7,20.1h-1l-0.4-1l-0.3,1h-1.1l0.9,0.6l-0.4,1.1l0.9-0.7l0.9,0.6l-0.3-1L22.7,20.1L22.7,20.1z
		 M17.3,20.1h-1.1l-0.3-1l-0.3,1h-1.1l0.9,0.6L15,21.9l0.9-0.7l0.9,0.6l-0.3-1L17.3,20.1L17.3,20.1z M12,20.1h-1.1l-0.3-1l-0.3,1
		H9.1l0.9,0.6l-0.3,1.1l0.9-0.7l0.9,0.6l-0.3-1L12,20.1L12,20.1z M6.6,20.1h-1l-0.3-1l-0.3,1H3.8l0.9,0.6l-0.4,1.1l1-0.7l0.9,0.6
		l-0.4-1L6.6,20.1L6.6,20.1z M28,14.9h-1l-0.3-1l-0.3,1h-1.1l0.9,0.6l-0.4,1l1-0.6l0.9,0.6l-0.4-1L28,14.9L28,14.9z M22.7,14.9h-1
		l-0.4-1l-0.3,1h-1.1l0.9,0.6l-0.4,1l0.9-0.6l0.9,0.6l-0.3-1L22.7,14.9L22.7,14.9z M17.3,14.9h-1.1l-0.3-1l-0.3,1h-1.1l0.9,0.6
		l-0.3,1l0.9-0.6l0.9,0.6l-0.3-1L17.3,14.9L17.3,14.9z M12,14.9h-1.1l-0.3-1l-0.3,1H9.1l0.9,0.6l-0.3,1l0.9-0.6l0.9,0.6l-0.3-1
		L12,14.9L12,14.9z M6.6,14.9h-1l-0.3-1l-0.3,1H3.8l0.9,0.6l-0.4,1l1-0.6l0.9,0.6l-0.4-1L6.6,14.9L6.6,14.9z M28,9.8h-1l-0.3-1
		l-0.3,1h-1.1l0.9,0.6l-0.4,1l1-0.6l0.9,0.6l-0.4-1L28,9.8L28,9.8z M22.7,9.8h-1l-0.4-1l-0.3,1h-1.1l0.9,0.6l-0.4,1l0.9-0.6l0.9,0.6
		l-0.3-1L22.7,9.8L22.7,9.8z M17.3,9.8h-1.1l-0.3-1l-0.3,1h-1.1l0.9,0.6l-0.3,1l0.9-0.6l0.9,0.6l-0.3-1L17.3,9.8L17.3,9.8z M12,9.8
		h-1.1l-0.3-1l-0.3,1H9.1l0.9,0.6l-0.3,1l0.9-0.6l0.9,0.6l-0.3-1L12,9.8L12,9.8z M6.6,9.8h-1l-0.3-1l-0.3,1H3.8l0.9,0.6l-0.4,1
		l1-0.6l0.9,0.6l-0.4-1L6.6,9.8L6.6,9.8z M28,4.5h-1l-0.3-1l-0.3,1h-1.1l0.9,0.6l-0.4,1.1l1-0.7l0.9,0.7l-0.4-1.1L28,4.5L28,4.5z
		 M22.7,4.5h-1l-0.4-1l-0.3,1h-1.1l0.9,0.6l-0.4,1.1l0.9-0.7l0.9,0.7l-0.3-1.1L22.7,4.5L22.7,4.5z M17.3,4.5h-1.1l-0.3-1l-0.3,1
		h-1.1l0.9,0.6L15,6.3l0.9-0.7l0.9,0.7l-0.3-1.1L17.3,4.5L17.3,4.5z M12,4.5h-1.1l-0.3-1l-0.3,1H9.1L10,5.2L9.7,6.3l0.9-0.7l0.9,0.7
		l-0.3-1.1L12,4.5L12,4.5z M6.6,4.5h-1l-0.3-1l-0.3,1H3.8l0.9,0.6L4.3,6.3l1-0.7l0.9,0.7L5.7,5.2L6.6,4.5L6.6,4.5z M30.8,17.5h-1
		l-0.4-1l-0.3,1h-1l0.9,0.6l-0.4,1l0.9-0.6l0.9,0.6l-0.3-1L30.8,17.5L30.8,17.5z M25.5,17.5h-1.1l-0.3-1l-0.3,1h-1.1l0.9,0.6l-0.3,1
		l0.9-0.6l0.9,0.6l-0.3-1L25.5,17.5L25.5,17.5z M20.1,17.5h-1l-0.3-1l-0.3,1h-1.1l0.9,0.6l-0.4,1l1-0.6l0.9,0.6l-0.3-1L20.1,17.5
		L20.1,17.5z M14.8,17.5h-1l-0.3-1l-0.4,1h-1l0.9,0.6l-0.4,1l1-0.6l0.9,0.6l-0.4-1L14.8,17.5L14.8,17.5z M9.4,17.5h-1l-0.4-1l-0.3,1
		h-1l0.9,0.6l-0.4,1L8,18.6l0.9,0.6l-0.3-1L9.4,17.5L9.4,17.5z M4.1,17.5H3l-0.3-1l-0.3,1H1.2l0.9,0.6l-0.3,1l0.9-0.6l0.9,0.6
		l-0.3-1L4.1,17.5L4.1,17.5z M30.8,12.3h-1l-0.4-1l-0.3,1h-1l0.9,0.6l-0.4,1l0.9-0.6l0.9,0.6l-0.3-1L30.8,12.3L30.8,12.3z
		 M25.5,12.3h-1.1l-0.3-1l-0.3,1h-1.1l0.9,0.6l-0.3,1l0.9-0.6l0.9,0.6l-0.3-1L25.5,12.3L25.5,12.3z M20.1,12.3h-1l-0.3-1l-0.3,1
		h-1.1l0.9,0.6l-0.4,1l1-0.6l0.9,0.6l-0.3-1L20.1,12.3L20.1,12.3z M14.8,12.3h-1l-0.3-1l-0.4,1h-1l0.9,0.6l-0.4,1l1-0.6l0.9,0.6
		l-0.4-1L14.8,12.3L14.8,12.3z M9.4,12.3h-1l-0.4-1l-0.3,1h-1L7.5,13l-0.4,1L8,13.4L8.9,14l-0.3-1L9.4,12.3L9.4,12.3z M4.1,12.3H3
		l-0.3-1l-0.3,1H1.2L2.1,13l-0.3,1l0.9-0.6L3.5,14l-0.3-1L4.1,12.3L4.1,12.3z M30.8,7.2h-1l-0.4-1l-0.3,1h-1l0.9,0.6l-0.4,1l0.9-0.6
		l0.9,0.6l-0.3-1L30.8,7.2L30.8,7.2z M25.5,7.2h-1.1l-0.3-1l-0.3,1h-1.1l0.9,0.6l-0.3,1L24,8.2l0.9,0.6l-0.3-1L25.5,7.2L25.5,7.2z
		 M20.1,7.2h-1l-0.3-1l-0.3,1h-1.1l0.9,0.6l-0.4,1l1-0.6l0.9,0.6l-0.3-1L20.1,7.2L20.1,7.2z M14.8,7.2h-1l-0.3-1l-0.4,1h-1l0.9,0.6
		l-0.4,1l1-0.6l0.9,0.6l-0.4-1L14.8,7.2L14.8,7.2z M9.4,7.2h-1L8,6.1l-0.3,1h-1l0.9,0.6l-0.4,1L8,8.2l0.9,0.6l-0.3-1L9.4,7.2
		L9.4,7.2z M4.1,7.2H3l-0.3-1l-0.3,1H1.2l0.9,0.6l-0.3,1l0.9-0.6l0.9,0.6l-0.3-1L4.1,7.2L4.1,7.2z M30.8,1.9h-1l-0.4-1l-0.3,1h-1
		l0.9,0.6l-0.4,1.1L29.4,3l0.9,0.6l-0.3-1L30.8,1.9L30.8,1.9z M25.5,1.9h-1.1L24,1l-0.3,1h-1.1l0.9,0.6l-0.3,1.1L24,3l0.9,0.6
		l-0.3-1L25.5,1.9L25.5,1.9z M20.1,1.9h-1l-0.3-1l-0.3,1h-1.1l0.9,0.6l-0.4,1.1l1-0.7l0.9,0.6l-0.3-1L20.1,1.9L20.1,1.9z M14.8,1.9
		h-1l-0.3-1l-0.4,1h-1l0.9,0.6l-0.4,1.1l1-0.7l0.9,0.6l-0.4-1L14.8,1.9L14.8,1.9z M9.4,1.9h-1L8,1l-0.3,1h-1l0.9,0.6L7.1,3.7L8,3
		l0.9,0.6l-0.3-1L9.4,1.9z"/>
	<path class="st2" d="M32.4,0h38.9v3.6H32.4V0L32.4,0z M71.2,7.2v3.6H32.4V7.2H71.2L71.2,7.2z M71.2,14.4V18H32.4v-3.6H71.2
		L71.2,14.4z M71.2,21.5v3.6H32.4v-3.6H71.2L71.2,21.5z M71.2,28.7v3.6H0v-3.6H71.2L71.2,28.7z M71.2,35.9v3.6H0v-3.6H71.2
		L71.2,35.9z M71.2,43.1v3.6H0v-3.6H71.2z"/>
</g>
</svg>
