<?xml version="1.0" encoding="utf-8"?>
<svg version="1.1" id="Flags" xmlns="http://www.w3.org/2000/svg" xmlns:xlink="http://www.w3.org/1999/xlink" x="0px" y="0px"
	 viewBox="0 0 71.2 46.7" style="enable-background:new 0 0 71.2 46.7;" xml:space="preserve">
<style type="text/css">
	.st0{fill-rule:evenodd;clip-rule:evenodd;fill:#FC0204;}
	.st1{fill-rule:evenodd;clip-rule:evenodd;fill:#FCFE04;}
</style>
<g>
	<rect x="0" class="st0" width="71.2" height="46.7"/>
	<polygon class="st1" points="13.3,5.9 15,11 20.4,11 16,14.2 17.7,19.4 13.3,16.2 8.9,19.4 10.6,14.2 6.2,11 11.6,11 	"/>
	<polygon class="st1" points="23.4,4.8 23.7,5.9 24.9,5.9 23.9,6.6 24.3,7.7 23.4,7 22.4,7.7 22.8,6.6 21.8,5.9 23,5.9 	"/>
	<polygon class="st1" points="27.8,9.3 28.2,10.5 29.4,10.5 28.4,11.2 28.8,12.3 27.8,11.6 26.8,12.3 27.2,11.2 26.3,10.5 
		27.4,10.5 	"/>
	<polygon class="st1" points="27.8,15.4 28.2,16.6 29.4,16.6 28.4,17.3 28.8,18.4 27.8,17.7 26.8,18.4 27.2,17.3 26.3,16.6 
		27.4,16.6 	"/>
	<polygon class="st1" points="23.4,20.2 23.7,21.3 24.9,21.3 23.9,22 24.3,23.2 23.4,22.5 22.4,23.2 22.8,22 21.8,21.3 23,21.3 	"/>
</g>
</svg>
