<?xml version="1.0" encoding="utf-8"?>
<!-- Generator: Adobe Illustrator 21.0.0, SVG Export Plug-In . SVG Version: 6.00 Build 0)  -->
<svg version="1.1" id="Layer_1" xmlns="http://www.w3.org/2000/svg" xmlns:xlink="http://www.w3.org/1999/xlink" x="0px" y="0px"
	 width="1024px" height="1024px" viewBox="0 0 1024 1024" style="enable-background:new 0 0 1024 1024;" xml:space="preserve">
<path d="M512,156C128,156,0,512,0,512s122,327,512,327s512-327,512-327S896,156,512,156z M512,763c-320,0-404-251-404-251
	s86-256,404-256s399,256,399,256S832,763,512,763z M512,320c-19.5,0-37.9,3.8-55.7,9.2c33.9,15.7,57.1,50.4,55.6,90.5
	c-1.9,49.9-42.3,90.3-92.2,92.2c-40.1,1.5-74.8-21.7-90.5-55.6c-5.4,17.8-9.2,36.2-9.2,55.7c0,120.5,110.9,215,236.1,187.1
	c64-14.3,128.7-79,143-143C727,430.9,632.5,320,512,320z"/>
</svg>
