<svg xmlns="http://www.w3.org/2000/svg" height="165" width="105"><path d="M5.86 15.97h5.242c.327 0 .546-.219.436-.437-.436-3.167-.982-4.915-.982-7.536l.546-2.62c-4.04.109-7.645.546-7.645 5.35 0 1.857.546 2.95 1.748 5.024.109.218.327.218.655.218zm13.323 0c.327 0 .546-.11.764-.328 1.092-1.966 1.748-3.167 1.748-5.024 0-4.805-3.604-5.241-7.754-5.35l.546 2.62c0 2.621-.546 4.368-.983 7.535a.47.47 0 0 0 .437.437h5.242zM4.44 19.026c0-.764 0-2.075-.218-2.512-.328-.982-4.04-2.73-4.04-6.88 0-3.603 2.51-5.678 5.678-5.678l5.46.655c.11-.437.328-.655.546-.655h.218c0-1.966-.982-1.747-1.747-1.747v-.656c.655 0 1.857.219 1.857-1.747h.655c0 1.966 1.201 1.747 1.856 1.747v.656c-.655 0-1.747-.219-1.747 1.638h.11c.218 0 .436.109.545.655l5.46-.655c3.168 0 5.68 2.075 5.68 5.678 0 4.15-3.714 6.007-4.041 6.88-.219.546-.219 1.857-.219 2.512 0 .328-.218.546-.546.546H4.767c-.108.11-.327-.11-.327-.437z" fill="#2b2521"/><path d="M58.06 97.982h5.242c.327 0 .546-.218.436-.436-.436-3.167-.982-4.915-.982-7.536l.546-2.62c-4.04.109-7.645.546-7.645 5.35 0 1.857.546 2.95 1.748 5.024 0 .218.218.218.655.218zm13.214 0c.327 0 .546-.109.764-.327 1.092-1.966 1.747-3.167 1.747-5.024 0-4.805-3.603-5.241-7.753-5.35l.546 2.62c0 2.621-.546 4.368-.983 7.535a.47.47 0 0 0 .437.437h5.242zM56.53 101.04c0-.764 0-2.075-.218-2.512-.328-.982-4.041-2.73-4.041-6.88 0-3.603 2.512-5.678 5.679-5.678l5.46.655c.11-.437.327-.655.546-.655h.218c0-1.966-.983-1.747-1.747-1.747v-.656c.655 0 1.857.219 1.857-1.747h.655c0 1.966 1.201 1.747 1.856 1.747v.656c-.655 0-1.747-.219-1.747 1.638h.11c.218 0 .436.109.545.655l5.46-.655c3.167 0 5.68 2.075 5.68 5.678 0 4.15-3.714 6.007-4.041 6.88-.219.546-.219 1.857-.219 2.512 0 .328-.218.546-.546.546h-15.18c-.109.11-.327-.11-.327-.437z" fill="#2b2521"/></svg>