<?xml version="1.0" encoding="utf-8"?>
<svg version="1.1" id="Layer_1" xmlns="http://www.w3.org/2000/svg" xmlns:xlink="http://www.w3.org/1999/xlink" x="0px" y="0px"
	 viewBox="0 0 50 91.6" style="enable-background:new 0 0 50 91.6;" xml:space="preserve">
<style type="text/css">
	.st0{fill:#FFFFFF;}
	.st1{fill:#F3BF00;}
</style>
<path class="st0" d="M44.4,50l0.1,2.3c-4.5,0-6.7,1.7-12.9,8.1c-2.9,2.9-4.7,4.9-7.6,7.7c7.9,8,16.5,18.7,21.3,20.2
	c1.3,0.4,2.5,0.4,3.8,0.5L49,91.1c-1.2,0-2-0.1-3.9-0.1c-4.7,0-6.4,0.3-8.4,0.3c-1.3,0-2.3-1.7-4.2-3.7c-4-3.7-8.8-9.2-13.6-14.3
	c-1,0.9-1.8,1.6-2.3,2.3c0,1.6-0.1,3.1-0.1,4.7c0,6.2,0.2,8.8,5.9,8.8l-0.1,2.5c-2.7-0.3-6.7-0.5-9.3-0.5c-3,0-6.4,0.2-8.8,0.5
	l-0.3-2.3c5.1-0.4,5.7-1.1,5.7-10.9c0-3.3,0.1-7.6-0.1-13.1C9.1,57.4,10.7,53,3.7,52.4l0.2-2.1c2.3,0.3,6.8,0.5,8.8,0.5
	c2.7,0,7.1-0.2,9.5-0.5l0.1,2.3c-6.2,0.5-5.9-0.7-5.9,18.2c8.8-8.5,15-15.6,15-17c0-1-0.7-1.2-2.6-1.5l0.2-2.1
	c1.7,0.3,5.1,0.5,7.6,0.5C39.5,50.4,42.7,50.2,44.4,50L44.4,50z"/>
<path class="st1" d="M11.6,32.6h10.5c0.6,0,1-0.5,0.9-0.9c-0.9-6.4-2-10-2-15.2l1.1-5.3c-8.3,0.2-15.5,1-15.5,10.7
	c0,3.7,1.2,6.1,3.5,10C10.4,32.5,10.9,32.6,11.6,32.6z M38.5,32.6c0.7,0,1.2-0.1,1.5-0.6c2.3-4.1,3.5-6.4,3.5-10
	c0-9.7-7.4-10.5-15.7-10.8l1.1,5.4c0,5.4-1.2,8.9-2,15.2c-0.1,0.5,0.3,0.9,0.9,0.9C27.7,32.6,38.5,32.6,38.5,32.6z M8.6,38.8
	c0-1.5-0.1-4.1-0.5-5.2C7.5,31.7,0,28,0,19.6C0,12.2,5.1,8.1,11.5,8.1l10.9,1.4c0.1-0.8,0.6-1.3,1.2-1.3H24
	c-0.1-3.9-2.1-3.5-3.5-3.5V3.5c1.4,0,3.9,0.5,3.9-3.5h1.3c0,4,2.4,3.5,3.8,3.5v1.3c-1.4,0-3.5-0.5-3.5,3.4h0.3
	c0.5,0,0.9,0.3,1.1,1.3l11.1-1.4c6.5,0,11.5,4.2,11.5,11.5c0,8.4-7.5,12.1-8.2,14c-0.4,1.1-0.5,3.7-0.5,5.2c0,0.7-0.5,1.1-1.1,1.1
	H9.5C9,39.9,8.6,39.5,8.6,38.8L8.6,38.8z"/>
</svg>
