<?xml version="1.0" encoding="utf-8"?>
<svg version="1.1" id="Layer_1" xmlns="http://www.w3.org/2000/svg" xmlns:xlink="http://www.w3.org/1999/xlink" x="0px" y="0px"
	 viewBox="0 0 118.3 94.5" style="enable-background:new 0 0 118.3 94.5;" xml:space="preserve">
<style type="text/css">
	.st0{fill:#F3BF00;}
</style>
<path class="st0" d="M27.8,77h24.7c1.4,0,2.3-1.2,2.1-2.1c-2.1-14.9-4.7-23.5-4.7-35.7l2.6-12.4C33.1,27.3,16.1,29.2,16.1,52
	c0,8.6,2.8,14.2,8.2,23.5C25,76.7,26.1,77,27.8,77z M90.7,77c1.6,0,2.8-0.2,3.5-1.4c5.4-9.6,8.2-14.9,8.2-23.5
	c0-22.8-17.2-24.7-36.8-25.4l2.6,12.6c0,12.6-2.8,21-4.7,35.7C63.2,76,64.1,77,65.5,77C65.5,77,90.7,77,90.7,77z M20.8,91.4
	c0-3.5-0.2-9.6-1.2-12.1C18,74.9,0.5,66.2,0.5,46.4c0-17.2,11.9-27,27-27l25.6,3.3c0.2-1.9,1.4-3,2.8-3h0.7
	c-0.2-9.1-4.9-8.2-8.2-8.2V8.7c3.3,0,9.1,1.2,9.1-8.2h3c0,9.3,5.6,8.2,8.9,8.2v3c-3.3,0-8.2-1.2-8.2,7.9H62c1.2,0,2.1,0.7,2.6,3
	l26.1-3.3c15.2,0,27,9.8,27,27c0,19.8-17.5,28.4-19.1,32.9c-0.9,2.6-1.2,8.6-1.2,12.1c0,1.6-1.2,2.6-2.6,2.6h-72
	C21.7,94,20.8,93.1,20.8,91.4L20.8,91.4z"/>
</svg>
