<?xml version="1.0" encoding="utf-8"?>
<svg version="1.1" id="Layer_1" xmlns="http://www.w3.org/2000/svg" xmlns:xlink="http://www.w3.org/1999/xlink" x="0px" y="0px"
	 viewBox="0 0 24 24" style="enable-background:new 0 0 24 24;" xml:space="preserve">
<style type="text/css">
	.st0{fill:#FF9900;}
	.st1{fill:#FFFFFF;}
</style>
<path class="st0" d="M12,24L12,24C5.4,24,0,18.6,0,12v0C0,5.4,5.4,0,12,0h0c6.6,0,12,5.4,12,12v0C24,18.6,18.6,24,12,24z"/>
<path class="st1" d="M11.8,18.8h2.6c-0.3-5.7-2.7-8.8-9.2-8.9c0,1,0.1,1.9,0.1,2.9C10.1,12.5,11.7,15.5,11.8,18.8L11.8,18.8z
	 M7.1,15.1C8.2,15.1,9,15.9,9,17c0,1-0.9,1.9-1.9,1.9c-1.1,0-1.9-0.8-1.9-1.9C5.2,15.9,6.1,15.1,7.1,15.1z M16.1,18.8
	c0.1-6.6-3.4-10.5-11-10.9C5,7,5,6.1,4.9,5.2c8.9,0.1,14.2,5,14.2,13.7H16.1L16.1,18.8z"/>
</svg>
