<?xml version="1.0" encoding="utf-8"?>
<svg version="1.1" id="Layer_1" xmlns="http://www.w3.org/2000/svg" xmlns:xlink="http://www.w3.org/1999/xlink" x="0px" y="0px"
	 viewBox="0 0 24 24" style="enable-background:new 0 0 24 24;" xml:space="preserve">
<style type="text/css">
	.st0{fill:#3D5A98;}
	.st1{fill:#FFFFFF;}
</style>
<g>
	<path class="st0" d="M24,12c0-6.6-5.4-12-12-12h0C5.4,0,0,5.4,0,12s5.4,12,12,12h0c0.2,0,0.4,0,0.7,0v-8.8h-3v-3.5h3V9.1
		c0-3,1.8-4.6,4.4-4.6c1.3,0,2.3,0.1,2.7,0.1v3.1l-1.8,0c-1.4,0-1.7,0.7-1.7,1.7v2.2h3.4l-0.4,3.5h-3v8.1C20.8,21.5,24,17.1,24,12z"
		/>
	<path class="st1" d="M19.2,15.1l0.4-3.5h-3.4V9.5c0-1,0.3-1.7,1.7-1.7l1.8,0V4.7c-0.3,0-1.4-0.1-2.7-0.1c-2.6,0-4.4,1.6-4.4,4.6
		v2.5h-3v3.5h3V24c1.2-0.1,2.4-0.3,3.6-0.7v-8.1H19.2z"/>
</g>
</svg>
