<?xml version="1.0" encoding="utf-8"?>
<svg version="1.1" id="Layer_1" xmlns="http://www.w3.org/2000/svg" xmlns:xlink="http://www.w3.org/1999/xlink" x="0px" y="0px"
	 viewBox="0 0 24 24" style="enable-background:new 0 0 24 24;" xml:space="preserve">
<style type="text/css">
	.st0{fill:#00AFF0;}
</style>
<g>
	<g>
		<path class="st0" d="M9.9,0.8L9.9,0.8c-0.1,0-0.3,0-0.3,0H9.9z"/>
		<path class="st0" d="M0.8,9.8C0.8,9.9,0.8,9.9,0.8,9.8c0,0.1,0,0.3,0,0.3V9.8z"/>
		<path class="st0" d="M23.1,14.2C23.1,14.1,23.1,14.1,23.1,14.2c0-0.1,0-0.3,0-0.3V14.2z"/>
		<path class="st0" d="M13.9,23C13.9,23,13.9,23.2,13.9,23c0.1,0,0.3,0,0.3,0H13.9z"/>
		<path class="st0" d="M23.1,14.1L23.1,14.1L23.1,14.1C23.1,13.9,23.1,13.9,23.1,14.1c0.1-0.6,0.1-1.4,0.1-2.1
			c0-1.5-0.3-3.1-0.9-4.4c-0.5-1.4-1.4-2.6-2.4-3.6s-2.3-1.9-3.6-2.4c-1.4-0.6-3-0.9-4.4-0.9c-0.8,0-1.4,0.1-2.2,0.3l0,0h0.1H9.6
			h0.1C8.9,0.3,7.7,0.1,6.7,0.1C4.9,0.1,3.2,0.7,1.9,2S0,4.9,0,6.7C0,7.9,0.3,9,0.9,9.9V9.8v0.3V9.9c-0.1,0.6-0.1,1.3-0.1,1.9
			c0,1.5,0.3,3.1,0.9,4.4c0.5,1.4,1.4,2.6,2.4,3.6c1,1,2.3,1.9,3.6,2.4c1.4,0.6,3,0.9,4.4,0.9c0.6,0,1.3,0,1.9-0.1h-0.1h0.3H14
			c1,0.5,2.2,0.9,3.3,0.9c1.8,0,3.5-0.6,4.7-1.9s1.9-3,1.9-4.7C24,16.1,23.6,15,23.1,14.1z M11.9,18.9C8,18.9,6,17,6,15.5
			c0-0.8,0.5-1.3,1.3-1.3c1.7,0,1.3,2.4,4.5,2.4c1.7,0,2.6-0.9,2.6-1.8c0-0.5-0.3-1.2-1.4-1.4l-3.6-0.9c-3-0.8-3.5-2.3-3.5-3.7
			c0-3.1,2.8-4.2,5.5-4.2c2.4,0,5.4,1.4,5.4,3.2c0,0.8-0.6,1.3-1.4,1.3c-1.2-0.1-0.9-2.2-3.9-2.2c-1.4,0-2.3,0.6-2.3,1.7
			c0,0.9,1.2,1.3,2.2,1.5l2.7,0.6c3,0.6,3.6,2.3,3.6,4C17.7,17,15.8,18.9,11.9,18.9z"/>
	</g>
</g>
</svg>
