<?xml version="1.0" encoding="utf-8"?>
<svg version="1.1" id="Layer_1" xmlns="http://www.w3.org/2000/svg" xmlns:xlink="http://www.w3.org/1999/xlink" x="0px" y="0px"
	 viewBox="0 0 24 24" style="enable-background:new 0 0 24 24;" xml:space="preserve">
<style type="text/css">
	.st0{fill:#4D75A3;}
	.st1{fill-rule:evenodd;clip-rule:evenodd;fill:#FFFFFF;}
</style>
<path class="st0" d="M12,24L12,24C5.4,24,0,18.6,0,12v0C0,5.4,5.4,0,12,0h0c6.6,0,12,5.4,12,12v0C24,18.6,18.6,24,12,24z"/>
<path class="st1" d="M11.8,16.2h0.9c0,0,0.3,0,0.4-0.2c0.1-0.1,0.1-0.4,0.1-0.4s0-1.2,0.5-1.4c0.5-0.2,1.3,1.2,2,1.7
	c0.6,0.4,1,0.3,1,0.3l2,0c0,0,1-0.1,0.6-0.9c0-0.1-0.3-0.6-1.5-1.7c-1.3-1.2-1.1-1,0.4-3c0.9-1.2,1.3-2,1.2-2.3
	c-0.1-0.3-0.8-0.2-0.8-0.2l-2.3,0c0,0-0.2,0-0.3,0.1c-0.1,0.1-0.2,0.2-0.2,0.2s-0.4,0.9-0.8,1.8c-1,1.7-1.4,1.8-1.6,1.7
	c-0.4-0.2-0.3-1-0.3-1.5c0-1.6,0.3-2.3-0.5-2.5c-0.2-0.1-0.4-0.1-1.1-0.1c-0.8,0-1.5,0-1.9,0.2C9.6,8,9.4,8.3,9.5,8.3
	c0.1,0,0.5,0.1,0.7,0.3c0.2,0.3,0.2,1,0.2,1s0.1,1.9-0.3,2.2c-0.3,0.2-0.7-0.2-1.6-1.7C8,9.4,7.7,8.5,7.7,8.5S7.6,8.3,7.5,8.2
	C7.3,8.1,7.1,8.1,7.1,8.1L5,8.1c0,0-0.3,0-0.4,0.1c-0.1,0.1,0,0.4,0,0.4s1.7,3.9,3.6,5.9C9.9,16.4,11.8,16.2,11.8,16.2L11.8,16.2z"
	/>
</svg>
